<svg height="56" viewBox="0 0 52 58" width="56" xmlns="http://www.w3.org/2000/svg"><g id="Page-1" fill="none" fill-rule="evenodd"><g id="049---Computer-Message-Thread" fill-rule="nonzero"><path id="Shape" d="m52 8v37.82c.0452102 1.152631-.8477494 2.1259569-2 2.18h-48c-1.10320187-.0032948-1.9967052-.8967981-2-2v-38c.0032948-1.10320187.89679813-1.9967052 2-2h48c1.1032019.0032948 1.9967052.89679813 2 2z" fill="#b0d3f0"/><path id="Shape" d="m52 8v37.82c.0452102 1.152631-.8477494 2.1259569-2 2.18h-48c-1.10320187-.0032948-1.9967052-.8967981-2-2v-4.4c11.45-3.17 35.64-12.53 39.58-35.6h10.42c1.1032019.0032948 1.9967052.89679813 2 2z" fill="#90bae1"/><path id="Shape" d="m34 48 3 6h-11-11l3-6z" fill="#2980ba"/><rect id="Rectangle-path" fill="#3b97d3" height="4" rx="2" width="34" x="9" y="54"/><path id="Shape" d="m6.428 6.83 4.572 3.17v1c0 .5522847.4477153 1 1 1h33c.5522847 0 1-.4477153 1-1v-10c0-.55228475-.4477153-1-1-1h-33c-.5522847 0-1 .44771525-1 1v1l-4.57 3.17c-.26908301.19060237-.42917641.49973409-.4295737.82948365-.00039729.32974955.15895076.63926615.4275737.83051635z" fill="#f0c419"/><path id="Shape" d="m45.57 23.83-4.57 3.17v1c0 .5522847-.4477153 1-1 1h-33c-.55228475 0-1-.4477153-1-1v-10c0-.5522847.44771525-1 1-1h33c.5522847 0 1 .4477153 1 1v1l4.57 3.17c.2684482.1911973.4278477.5004232.4278477.83s-.1593995.6388027-.4278477.83z" fill="#ff5364"/><g fill="#ecf0f1"><path id="Shape" d="m17 5h-1c-.5522847 0-1-.44771525-1-1s.4477153-1 1-1h1c.5522847 0 1 .44771525 1 1s-.4477153 1-1 1z"/><path id="Shape" d="m41 5h-20c-.5522847 0-1-.44771525-1-1s.4477153-1 1-1h20c.5522847 0 1 .44771525 1 1s-.4477153 1-1 1z"/><path id="Shape" d="m31 9h-15c-.5522847 0-1-.44771525-1-1s.4477153-1 1-1h15c.5522847 0 1 .44771525 1 1s-.4477153 1-1 1z"/><path id="Shape" d="m12 22h-1c-.5522847 0-1-.4477153-1-1s.4477153-1 1-1h1c.5522847 0 1 .4477153 1 1s-.4477153 1-1 1z"/><path id="Shape" d="m36 22h-20c-.5522847 0-1-.4477153-1-1s.4477153-1 1-1h20c.5522847 0 1 .4477153 1 1s-.4477153 1-1 1z"/><path id="Shape" d="m26 26h-15c-.5522847 0-1-.4477153-1-1s.4477153-1 1-1h15c.5522847 0 1 .4477153 1 1s-.4477153 1-1 1z"/></g><path id="Shape" d="m52 42v3.82c.0452102 1.152631-.8477494 2.1259569-2 2.18h-48c-1.10320187-.0032948-1.9967052-.8967981-2-2v-4z" fill="#3b97d3"/></g></g></svg>