<svg height="56" viewBox="0 0 58 58" width="56" xmlns="http://www.w3.org/2000/svg"><g id="Page-1" fill="none" fill-rule="evenodd"><g id="059---Mobile-Geolocation" fill-rule="nonzero"><rect id="Rectangle-path" fill="#67b9cc" height="34" rx="3" width="58" y="24"/><path id="Shape" d="m58 27v28c0 1.6568542-1.3431458 3-3 3h-49.31c11.82-3.6 33.32-13.04 32.76-34h16.55c1.6568542 0 3 1.3431458 3 3z" fill="#2fa8cc"/><path id="Shape" d="m0 31 3.052 2.861c.60498515.5672653.94815313 1.3596648.948 2.189v9.9c.00015313.8293352-.34301485 1.6217347-.948 2.189l-3.052 2.861z" fill="#2980ba"/><g fill="#9fc9d3"><path id="Shape" d="m10 55c-.26519481-.0000566-.51950727-.1054506-.707-.293l-2-2c-.37897221-.3923789-.37355237-1.0160848.01218142-1.4018186.3857338-.3857338 1.00943969-.3911536 1.40181858-.0121814l2 2c.2859079.2859943.3714219.7160366.216678 1.0896546-.1547439.3736179-.5192821.6172591-.923678.6173454z"/><path id="Shape" d="m16 55c-.2651948-.0000566-.5195073-.1054506-.707-.293l-8-8c-.37897221-.3923789-.37355237-1.0160848.01218142-1.4018186.3857338-.3857338 1.00943969-.3911536 1.40181858-.0121814l8 8c.2859079.2859943.3714219.7160366.216678 1.0896546-.1547439.3736179-.5192821.6172591-.923678.6173454z"/><path id="Shape" d="m22 55c-.2651948-.0000566-.5195073-.1054506-.707-.293l-14-14c-.37897221-.3923789-.37355237-1.0160848.01218142-1.4018186.3857338-.3857338 1.00943969-.3911536 1.40181858-.0121814l14 14c.2859079.2859943.3714219.7160366.216678 1.0896546-.1547439.3736179-.5192821.6172591-.923678.6173454z"/></g><path id="Shape" d="m21.71 30.24 7.29 12.76 7.29-12.76z" fill="#c03a2b"/><path id="Shape" d="m58 27v28c0 1.6568542-1.3431458 3-3 3h-5c1.6568542 0 3-1.3431458 3-3v-28c0-1.6568542-1.3431458-3-3-3h5c1.6568542 0 3 1.3431458 3 3z" fill="#2980ba"/><path id="Shape" d="m36 44h-14c-.5522847 0-1-.4477153-1-1s.4477153-1 1-1h14c.5522847 0 1 .4477153 1 1s-.4477153 1-1 1z" fill="#2980ba"/><circle id="Oval" cx="29" cy="16" fill="#e64c3c" r="16"/><circle id="Oval" cx="29" cy="16" fill="#ecf0f1" r="11"/><path id="Shape" d="m22 17c-.5522847 0-1-.4477153-1-1 .0049599-4.4162219 3.5837781-7.99504012 8-8 .5522847 0 1 .44771525 1 1s-.4477153 1-1 1c-3.3123376.0033074-5.9966926 2.6876624-6 6 0 .5522847-.4477153 1-1 1z" fill="#fff"/></g></g></svg>